<?xml version="1.0" encoding="UTF-8" standalone="no"?>
<!-- Generator: Adobe Illustrator 15.1.0, SVG Export Plug-In . SVG Version: 6.00 Build 0)  -->

<svg
   xmlns:dc="http://purl.org/dc/elements/1.1/"
   xmlns:cc="http://creativecommons.org/ns#"
   xmlns:rdf="http://www.w3.org/1999/02/22-rdf-syntax-ns#"
   xmlns:svg="http://www.w3.org/2000/svg"
   xmlns="http://www.w3.org/2000/svg"
   xmlns:sodipodi="http://sodipodi.sourceforge.net/DTD/sodipodi-0.dtd"
   xmlns:inkscape="http://www.inkscape.org/namespaces/inkscape"
   version="1.1"
   id="Calque_1"
   x="0px"
   y="0px"
   width="179.52455"
   height="171.60635"
   viewBox="0 0 179.52455 171.60635"
   enable-background="new 0 0 354.823 171.606"
   xml:space="preserve"
   inkscape:version="0.91 r13725"
   sodipodi:docname="rer-B.svg"><metadata
     id="metadata12"><rdf:RDF><cc:Work
         rdf:about=""><dc:format>image/svg+xml</dc:format><dc:type
           rdf:resource="http://purl.org/dc/dcmitype/StillImage" /><dc:title></dc:title></cc:Work></rdf:RDF></metadata><defs
     id="defs10" /><sodipodi:namedview
     pagecolor="#ffffff"
     bordercolor="#666666"
     borderopacity="1"
     objecttolerance="10"
     gridtolerance="10"
     guidetolerance="10"
     inkscape:pageopacity="0"
     inkscape:pageshadow="2"
     inkscape:window-width="1920"
     inkscape:window-height="1016"
     id="namedview8"
     showgrid="false"
     fit-margin-top="0"
     fit-margin-left="0"
     fit-margin-right="0"
     fit-margin-bottom="0"
     inkscape:zoom="1.2203268"
     inkscape:cx="3.7521666"
     inkscape:cy="85.804006"
     inkscape:window-x="0"
     inkscape:window-y="27"
     inkscape:window-maximized="1"
     inkscape:current-layer="Calque_1" /><g
     id="g7173"
     transform="matrix(0.5782236,0,0,0.5782236,210.49883,316.23627)"><path
       id="path7161"
       d="m -364.044,-398.543 c 0,-81.973 69.489,-148.367 155.253,-148.367 85.735,0 155.223,66.394 155.223,148.367 0,81.965 -69.488,148.415 -155.234,148.415 -85.753,-0.001 -155.242,-66.451 -155.242,-148.415"
       inkscape:connector-curvature="0"
       style="fill:#4f90cd" /><path
       id="path7163"
       d="m -342.183,-398.543 c 0,-70.486 59.723,-127.597 133.393,-127.597 73.666,0 133.371,57.121 133.371,127.597 0,70.487 -59.713,127.672 -133.371,127.672 -73.657,-0.001 -133.393,-57.185 -133.393,-127.672"
       inkscape:connector-curvature="0"
       style="fill:#ffffff" /><path
       id="path7165"
       d="m -145.133,-372.284 c 0,-20.103 -12.773,-31.751 -28.571,-33.806 l 0,-0.384 c 11.618,-2.027 23.685,-13.093 23.685,-27.763 0,-30.766 -29.505,-35.993 -53.672,-35.993 l -55.524,0 0,141.982 53.192,0 c 28.139,10e-4 60.89,-8.256 60.89,-44.036 m -36.019,-57.73 c 0,16.313 -17.433,16.087 -28.571,16.087 l -16.504,0 0,-32.568 16.023,0 c 10.686,0 29.052,-0.413 29.052,16.481 z m 3.023,56.905 c 0,18.519 -13.481,21.336 -28.808,21.336 l -19.28,0 0,-39.618 17.426,0 c 10.921,-10e-4 30.662,0.609 30.662,18.282 z"
       inkscape:connector-curvature="0"
       style="fill:#4f90cd" /></g></svg>