<?xml version="1.0" encoding="UTF-8" standalone="no"?>
<!-- Created with Inkscape (http://www.inkscape.org/) -->

<svg
   xmlns:dc="http://purl.org/dc/elements/1.1/"
   xmlns:cc="http://creativecommons.org/ns#"
   xmlns:rdf="http://www.w3.org/1999/02/22-rdf-syntax-ns#"
   xmlns:svg="http://www.w3.org/2000/svg"
   xmlns="http://www.w3.org/2000/svg"
   xmlns:sodipodi="http://sodipodi.sourceforge.net/DTD/sodipodi-0.dtd"
   xmlns:inkscape="http://www.inkscape.org/namespaces/inkscape"
   id="svg2"
   version="1.1"
   inkscape:version="0.91 r13725"
   width="200.00323"
   height="199.03207"
   viewBox="0 0 200.00323 199.03207"
   sodipodi:docname="status-grey.svg">
  <metadata
     id="metadata8">
    <rdf:RDF>
      <cc:Work
         rdf:about="">
        <dc:format>image/svg+xml</dc:format>
        <dc:type
           rdf:resource="http://purl.org/dc/dcmitype/StillImage" />
        <dc:title></dc:title>
      </cc:Work>
    </rdf:RDF>
  </metadata>
  <defs
     id="defs6" />
  <sodipodi:namedview
     pagecolor="#ffffff"
     bordercolor="#666666"
     borderopacity="1"
     objecttolerance="10"
     gridtolerance="10"
     guidetolerance="10"
     inkscape:pageopacity="0"
     inkscape:pageshadow="2"
     inkscape:window-width="1920"
     inkscape:window-height="1016"
     id="namedview4"
     showgrid="false"
     inkscape:zoom="2.085965"
     inkscape:cx="81.021199"
     inkscape:cy="64.745367"
     inkscape:window-x="0"
     inkscape:window-y="27"
     inkscape:window-maximized="1"
     inkscape:current-layer="svg2"
     fit-margin-top="0"
     fit-margin-left="0"
     fit-margin-right="0"
     fit-margin-bottom="0" />
  <path
     style="fill:#de0000;fill-opacity:1"
     d="M 33.488195,197.7151 C 12.979035,191.20147 -0.03366458,174.12939 6.5415685e-5,153.78019 0.01466542,144.97468 1.7243854,138.29725 6.0920454,129.98767 c 2.65284,-5.0471 8.2718796,-11.34781 27.0828896,-30.368393 l 23.73557,-23.999997 6.770383,6.740797 6.77038,6.74079 -23.679693,23.759203 c -26.53951,26.62863 -28.10985,28.87188 -28.18262,40.25921 -0.10066,15.75183 11.67095,27.31925 27.89924,27.4153 11.70527,0.0693 13.703553,-1.3098 40.479053,-27.93601 l 23.594712,-23.46317 6.44455,6.50236 6.44456,6.50236 -22.98143,23.06444 c -12.639792,12.68544 -24.958482,24.44678 -27.374872,26.1363 -7.4083,5.17985 -16.276073,7.74301 -26.606573,7.69043 -4.95,-0.0252 -10.8,-0.61748 -13,-1.31619 z m 98.729195,-23.76663 c -1.43483,-1.43483 -1.73532,-26.48221 -0.34405,-28.67758 0.46998,-0.74162 1.70059,-1.18546 2.73469,-0.98631 1.74039,0.33517 1.88017,1.47522 1.88017,15.3347 0,12.605 -0.24049,15.01892 -1.52081,15.26549 -0.83645,0.16109 -2.07395,-0.26025 -2.75,-0.9363 z m 24.90725,-12.19246 c -13.38021,-13.40781 -15.33538,-16.58957 -10.73822,-17.4749 2.65132,-0.5106 28.60178,25.4149 28.60178,28.57428 0,1.68519 -0.5787,2.26389 -2.26389,2.26389 -1.57363,0 -6.33004,-4.07452 -15.59967,-13.36327 z m -13.7797,-26.14946 c -0.31927,-0.83201 -0.025,-2.18201 0.65383,-3 0.983,-1.18445 4.03496,-1.48727 14.98942,-1.48727 10.95448,0 14.00644,0.30282 14.98944,1.48727 0.67888,0.81799 0.9731,2.16799 0.65383,3 -0.48261,1.25766 -3.12026,1.51273 -15.64327,1.51273 -12.52299,0 -15.16064,-0.25507 -15.64325,-1.51273 z m -7.36723,-18.99786 -6.45272,-6.51059 23.69472,-23.739413 C 179.79813,59.730159 181.33913,57.52751 181.37788,46.110301 181.42938,30.940454 169.16224,18.99428 153.53335,18.99428 c -11.28221,0 -13.43319,1.494871 -39.07864,27.158509 -12.62261,12.63157 -23.416872,22.966491 -23.987252,22.966491 -0.57037,0 -3.84066,-2.828765 -7.26731,-6.286145 L 76.969878,56.546989 101.22904,32.453858 C 126.54222,7.3139164 130.19867,4.5008414 141.4882,1.4806334 c 21.14506,-5.656793 44.76242,5.349345 54.22197,25.2684786 6.0444,12.72778 5.68912,28.152501 -0.95792,41.589644 -2.56071,5.17652 -7.32851,10.543241 -27.12333,30.530521 -13.20906,13.337503 -24.28242,24.250003 -24.60748,24.250003 -0.32506,0 -3.49474,-2.92976 -7.04373,-6.51059 z M 25.654865,68.452613 c -0.36667,-0.366666 -0.66667,-1.728387 -0.66667,-3.026046 l 0,-2.359379 15.23739,0.276046 c 13.99916,0.253614 15.26672,0.428834 15.59839,2.156219 0.19855,1.034095 -0.24577,2.264704 -0.98739,2.734687 -1.57946,1.000948 -28.19995,1.200247 -29.18172,0.218473 z M 38.780395,43.37783 c -9.93121,-9.840567 -13.78629,-14.308731 -13.58011,-15.739784 0.68708,-4.768871 3.96173,-2.816087 16.98993,10.131661 7.11118,7.067265 13.38107,13.665838 13.93309,14.663495 1.05901,1.913924 -0.377,4.686078 -2.42744,4.686078 -0.57609,0 -7.28805,-6.183652 -14.91547,-13.74145 z m 24.874473,12.074783 c -0.36667,-0.366666 -0.66667,-7.130789 -0.66667,-15.031384 0,-11.899894 0.25957,-14.464324 1.51274,-14.945209 0.832,-0.31927 2.182,-0.02505 3,0.653829 1.17455,0.974796 1.48726,3.924719 1.48726,14.030088 0,7.037673 -0.27315,13.507572 -0.60699,14.377556 -0.61163,1.593894 -3.49022,2.151249 -4.72634,0.91512 z"
     id="path4144"
     inkscape:connector-curvature="0" />
</svg>
