<?xml version="1.0" encoding="UTF-8" standalone="no"?>
<!-- Created with Inkscape (http://www.inkscape.org/) -->

<svg
   xmlns:dc="http://purl.org/dc/elements/1.1/"
   xmlns:cc="http://creativecommons.org/ns#"
   xmlns:rdf="http://www.w3.org/1999/02/22-rdf-syntax-ns#"
   xmlns:svg="http://www.w3.org/2000/svg"
   xmlns="http://www.w3.org/2000/svg"
   xmlns:sodipodi="http://sodipodi.sourceforge.net/DTD/sodipodi-0.dtd"
   xmlns:inkscape="http://www.inkscape.org/namespaces/inkscape"
   id="svg2"
   version="1.1"
   inkscape:version="0.91 r13725"
   width="16"
   height="16"
   viewBox="0 0 16 16"
   sodipodi:docname="status-green.svg">
  <metadata
     id="metadata8">
    <rdf:RDF>
      <cc:Work
         rdf:about="">
        <dc:format>image/svg+xml</dc:format>
        <dc:type
           rdf:resource="http://purl.org/dc/dcmitype/StillImage" />
        <dc:title></dc:title>
      </cc:Work>
    </rdf:RDF>
  </metadata>
  <defs
     id="defs6" />
  <sodipodi:namedview
     pagecolor="#ffffff"
     bordercolor="#666666"
     borderopacity="1"
     objecttolerance="10"
     gridtolerance="10"
     guidetolerance="10"
     inkscape:pageopacity="0"
     inkscape:pageshadow="2"
     inkscape:window-width="1920"
     inkscape:window-height="1016"
     id="namedview4"
     showgrid="false"
     inkscape:zoom="16.68772"
     inkscape:cx="19.205078"
     inkscape:cy="7.7786203"
     inkscape:window-x="0"
     inkscape:window-y="27"
     inkscape:window-maximized="1"
     inkscape:current-layer="svg2" />
  <path
     style="fill:#50972c;fill-opacity:1"
     d="m 2.8208341,14.173661 c 0.7990827,-1.058106 1.4508439,-1.925138 1.4483572,-1.926736 -0.00249,-0.0016 -0.041095,-0.0099 -0.085794,-0.01839 C 3.9057032,12.175619 3.6130645,12.054199 3.3641362,11.888611 2.7791989,11.499506 2.4035604,10.905552 2.3511899,10.286952 2.3410319,10.166981 2.3469999,10.079151 2.3939369,9.6574565 2.4239389,9.3879174 2.4682949,8.9892635 2.4925049,8.7715589 2.5167149,8.5538542 2.5615539,8.152373 2.5921479,7.8793784 2.6227419,7.6063838 2.6675789,7.2049025 2.6917879,6.9871979 2.7159959,6.7694933 2.7608339,6.368012 2.7914279,6.0950173 2.8220209,5.8220227 2.8668589,5.4205415 2.8910679,5.2028369 2.9152759,4.9851323 2.9601019,4.583651 2.9906779,4.3106564 3.194616,2.4899028 3.2308791,2.1333812 3.2379977,1.87915 3.2715537,0.68061479 3.7135448,0.10471354 4.6608841,0.02517375 4.8989488,0.00518641 11.32305,0.01591495 11.438724,0.03649418 c 0.732765,0.1303614 1.078288,0.52065269 1.195986,1.35094102 0.01188,0.08384 0.02777,0.3079379 0.0353,0.4979976 0.0089,0.224597 0.03128,0.4951212 0.06395,0.7728042 0.02764,0.2349827 0.11441,0.9785716 0.192826,1.6524192 0.07841,0.6738476 0.151912,1.3043428 0.163326,1.4011004 0.01141,0.096757 0.07857,0.6735334 0.149235,1.281724 0.07066,0.6081907 0.141128,1.2132399 0.156585,1.3445538 0.180223,1.5310371 0.209795,1.8223016 0.198402,1.9540696 -0.06629,0.766543 -0.643801,1.498517 -1.434639,1.818336 -0.121429,0.04911 -0.275037,0.09472 -0.397716,0.118093 -0.0447,0.0085 -0.08331,0.0168 -0.08579,0.01839 -0.0025,0.0016 0.649273,0.868629 1.448357,1.926736 l 1.452878,1.92383 -0.838213,0 -0.838214,0 -0.181347,-0.235611 c -0.09974,-0.129585 -0.19015,-0.24389 -0.200909,-0.254011 -0.01703,-0.01602 -0.01956,-0.0152 -0.01956,0.0063 0,0.02448 -0.03707,0.02468 -4.5499491,0.02468 l -4.5499488,0 -0.1774567,0.229328 -0.1774553,0.229328 -0.8382041,0 -0.8382026,0 1.452878,-1.92383 z m 9.4982489,1.171497 c -0.01447,-0.01984 -0.125264,-0.164037 -0.246211,-0.32043 l -0.219903,-0.284356 -3.8802829,0 -3.880284,0 -0.2199018,0.284356 c -0.1209468,0.156393 -0.2317417,0.300588 -0.2462109,0.32043 l -0.026308,0.03608 4.3727044,0 4.3727052,0 -0.02631,-0.03608 z M 11.64504,14.479629 c 0,-0.0052 -0.100928,-0.139481 -0.22419,-0.298441 l -0.22411,-0.289016 -3.2240539,0 -3.2240532,0 -0.2241108,0.289016 c -0.1232614,0.15896 -0.2241464,0.293257 -0.2241891,0.298441 0,0.0052 1.6525158,0.0095 3.6723531,0.0095 2.0198369,0 3.6723959,-0.0043 3.6723539,-0.0095 z m -0.683166,-0.888231 c 0,-0.0062 -0.118374,-0.157947 -0.360972,-0.462606 l -0.167604,-0.210479 -2.4864769,1.26e-4 -2.4864767,1.26e-4 -0.1271566,0.185268 c -0.069936,0.101897 -0.1755895,0.250296 -0.2347852,0.329775 -0.059196,0.07948 -0.1097997,0.148749 -0.1124529,0.153932 -0.00265,0.0052 1.3408442,0.0095 2.9855501,0.0095 1.6447066,-1.26e-4 2.9903742,-0.0026 2.9903742,-0.0056 z m -0.771021,-0.971974 c -0.0026,-0.0054 -0.0752,-0.09864 -0.16132,-0.207137 l -0.1565768,-0.197266 -1.9643244,2.83e-4 -1.9643235,2.83e-4 -0.1352252,0.197 c -0.074374,0.10835 -0.1373604,0.201435 -0.1399699,0.206856 -0.00261,0.0054 1.0147819,0.0099 2.2608707,0.0099 1.2460883,0 2.2634801,-0.0045 2.2608691,-0.0099 z m 1.418679,-1.964767 c 0.246617,-0.02751 0.419469,-0.104379 0.511798,-0.227593 0.118854,-0.158613 0.1242,-0.4552413 0.01089,-0.6041814 -0.09047,-0.1189212 -0.238961,-0.1764256 -0.513103,-0.1987044 -0.234804,-0.019082 -1.138998,-0.00688 -1.241146,0.016746 -0.194306,0.044946 -0.294352,0.1222135 -0.343609,0.2653762 -0.02487,0.072284 -0.02862,0.109561 -0.02345,0.232761 0.0053,0.127059 0.01153,0.157176 0.04626,0.225031 0.07282,0.142253 0.215537,0.232156 0.435108,0.274098 0.209911,0.0401 0.824275,0.04915 1.117255,0.01647 z M 5.3962904,10.618365 C 5.7164795,10.574277 5.8773051,10.442733 5.907723,10.200049 5.9323176,10.003825 5.8832836,9.842379 5.7714539,9.7513794 5.6968661,9.6906851 5.6239474,9.6612736 5.4888129,9.6373779 5.3521322,9.6132087 4.2820561,9.6120924 4.1392356,9.6359698 3.9471005,9.6680919 3.8249979,9.7388026 3.7614022,9.8547753 c -0.046535,0.084861 -0.066403,0.2376437 -0.046457,0.3572407 0.046984,0.281718 0.231208,0.394682 0.6849482,0.420003 0.2216783,0.01237 0.8721267,0.0035 0.9963962,-0.01365 z M 11.289262,5.8908161 c 0.223187,-0.049968 0.370813,-0.1108257 0.52177,-0.2150979 0.24322,-0.1680025 0.391764,-0.415092 0.431893,-0.7184163 0.01579,-0.1193413 0.01283,-0.1555361 -0.06363,-0.7785877 -0.04411,-0.3593853 -0.08648,-0.7354207 -0.09415,-0.8356339 -0.03238,-0.422605 -0.13702,-0.6659552 -0.369662,-0.8596967 -0.102791,-0.085603 -0.233869,-0.149865 -0.39063,-0.1915109 -0.08105,-0.021532 -0.249009,-0.022891 -3.2952253,-0.026645 -2.2816602,-0.00281 -3.241736,0 -3.3201951,0.00987 C 4.5301175,2.2975717 4.4167988,2.3359024 4.277961,2.4210492 4.0595851,2.5549755 3.9310984,2.8120429 3.9081841,3.1608741 3.9031937,3.236898 3.8510818,3.6440342 3.7923873,4.065621 3.6877315,4.8173326 3.685992,4.8345605 3.7023388,4.9573019 c 0.071863,0.539613 0.4939576,0.8975365 1.1245825,0.9536097 0.027401,0.00244 1.4718194,0.00358 3.2098192,0.00252 2.8839915,-0.00174 3.1680805,-0.00372 3.2525215,-0.02262 z M 9.2640599,1.8211934 C 9.4184857,1.7974529 9.5540687,1.6908081 9.5949255,1.5609469 9.6032585,1.5343787 9.6094942,1.3587185 9.609541,1.1476562 9.6096121,0.81024357 9.6072939,0.77510172 9.5809186,0.71285143 9.542587,0.62241698 9.4466867,0.53742235 9.345121,0.50387631 9.268336,0.47851443 9.2436723,0.47804967 7.9726842,0.47804967 c -1.270988,0 -1.2956521,4.6496e-4 -1.372437,0.0258267 -0.1015653,0.0335462 -0.1974689,0.11854067 -0.2357968,0.20897512 -0.026383,0.0622501 -0.028696,0.0973921 -0.028623,0.43480474 4.27e-5,0.2110623 0.00625,0.3867226 0.014617,0.4132907 0.021351,0.067862 0.097739,0.1613376 0.1665471,0.2038016 0.033139,0.020451 0.097193,0.044188 0.1423423,0.05275 0.1112296,0.02109 2.469803,0.024437 2.604724,0.0037 z"
     id="path4138"
     inkscape:connector-curvature="0" />
</svg>
