<?xml version="1.0" encoding="UTF-8" standalone="no"?>
<!-- Created with Inkscape (http://www.inkscape.org/) -->

<svg
   xmlns:dc="http://purl.org/dc/elements/1.1/"
   xmlns:cc="http://creativecommons.org/ns#"
   xmlns:rdf="http://www.w3.org/1999/02/22-rdf-syntax-ns#"
   xmlns:svg="http://www.w3.org/2000/svg"
   xmlns="http://www.w3.org/2000/svg"
   xmlns:xlink="http://www.w3.org/1999/xlink"
   xmlns:sodipodi="http://sodipodi.sourceforge.net/DTD/sodipodi-0.dtd"
   xmlns:inkscape="http://www.inkscape.org/namespaces/inkscape"
   width="600"
   height="600"
   id="svg4711"
   version="1.1"
   inkscape:version="0.91 r13725"
   sodipodi:docname="status-green.svg">
  <defs
     id="defs4713">
    <radialGradient
       inkscape:collect="always"
       xlink:href="#linearGradient3101"
       id="radialGradient4585"
       gradientUnits="userSpaceOnUse"
       gradientTransform="matrix(30.799321,0,0,10.829442,-188.14706,421.02292)"
       cx="17.3125"
       cy="25.5313"
       fx="17.3125"
       fy="25.5313"
       r="9.6875" />
    <linearGradient
       id="linearGradient3101">
      <stop
         offset="0"
         style="stop-color: rgb(0, 0, 0); stop-opacity: 1;"
         id="stop3103" />
      <stop
         offset="1"
         style="stop-color: rgb(0, 0, 0); stop-opacity: 0;"
         id="stop3105" />
    </linearGradient>
  </defs>
  <sodipodi:namedview
     id="base"
     pagecolor="#ffffff"
     bordercolor="#666666"
     borderopacity="1.0"
     inkscape:pageopacity="0.0"
     inkscape:pageshadow="2"
     inkscape:zoom="0.70000002"
     inkscape:cx="84.140376"
     inkscape:cy="249.1413"
     inkscape:document-units="px"
     inkscape:current-layer="layer1"
     showgrid="false"
     inkscape:window-width="1920"
     inkscape:window-height="1016"
     inkscape:window-x="0"
     inkscape:window-y="27"
     inkscape:window-maximized="1" />
  <metadata
     id="metadata4716">
    <rdf:RDF>
      <cc:Work
         rdf:about="">
        <dc:format>image/svg+xml</dc:format>
        <dc:type
           rdf:resource="http://purl.org/dc/dcmitype/StillImage" />
        <dc:title />
      </cc:Work>
    </rdf:RDF>
  </metadata>
  <g
     inkscape:label="レイヤー 1"
     inkscape:groupmode="layer"
     id="layer1"
     transform="translate(0,-452.36218)">
    <path
       inkscape:connector-curvature="0"
       id="path1650"
       style="fill:#00a000;fill-opacity:1;fill-rule:nonzero;stroke:none"
       d="m 262.67458,752.36218 a 120.67464,120.67453 0 1 1 -241.34916,0 120.67464,120.67453 0 1 1 241.34916,0 z" />
    <path
       style="fill:#000000;fill-opacity:1;fill-rule:nonzero;stroke:none"
       d="M 128.68751,884.47615 C 81.73693,880.19842 38.43186,848.07322 19.75938,803.66944 -7.13018,739.72515 21.89645,663.05161 84.36498,633.01447 c 43.90699,-21.11209 95.20272,-17.08494 133.76878,10.50196 23.67249,16.9333 41.38178,40.80574 51.0674,68.83983 4.46702,12.92922 4.99982,17.00927 5.07061,38.82734 0.067,20.65229 -0.56753,26.45088 -4.15009,37.92438 -8.82364,28.25827 -25.21968,52.28435 -46.61441,68.30672 -28.77265,21.54761 -59.39996,30.28861 -94.81976,27.06145 z m 43.35355,-9.84888 c 21.21405,-4.43117 40.11731,-15.18876 58.21698,-33.13052 24.5436,-24.32952 35.58752,-48.65857 37.30762,-82.1865 2.64483,-51.55197 -23.53493,-96.6821 -69.06353,-119.0557 -36.97689,-18.17113 -75.59301,-18.27959 -111.96721,-0.31449 -51.94586,25.65588 -79.10884,82.88248 -66.83615,140.80946 5.31808,25.10131 21.99614,52.07157 42.70998,69.06679 30.4078,24.94884 68.11659,33.48278 109.63231,24.81096 l 0,0 z"
       id="path4749"
       inkscape:connector-curvature="0" />
  </g>
</svg>
