<?xml version="1.0" encoding="UTF-8" standalone="no"?>
<!-- Created with Inkscape (http://www.inkscape.org/) -->
<svg xmlns:dc="http://purl.org/dc/elements/1.1/" xmlns:cc="http://creativecommons.org/ns#" xmlns:rdf="http://www.w3.org/1999/02/22-rdf-syntax-ns#" xmlns:svg="http://www.w3.org/2000/svg" xmlns="http://www.w3.org/2000/svg" xmlns:xlink="http://www.w3.org/1999/xlink" xmlns:sodipodi="http://sodipodi.sourceforge.net/DTD/sodipodi-0.dtd" xmlns:inkscape="http://www.inkscape.org/namespaces/inkscape" width="600" height="600" id="svg4711" version="1.1" inkscape:version="0.48.1 " sodipodi:docname="新規ドキュメント 14">
  <defs id="defs4713">
    <radialGradient inkscape:collect="always" xlink:href="#linearGradient3101" id="radialGradient4585" gradientUnits="userSpaceOnUse" gradientTransform="matrix(30.799321,0,0,10.829442,-188.14706,421.02292)" cx="17.3125" cy="25.5313" fx="17.3125" fy="25.5313" r="9.6875"/>
    <linearGradient id="linearGradient3101">
      <stop offset="0" style="stop-color: rgb(0, 0, 0); stop-opacity: 1;" id="stop3103"/>
      <stop offset="1" style="stop-color: rgb(0, 0, 0); stop-opacity: 0;" id="stop3105"/>
    </linearGradient>
    <filter inkscape:collect="always" id="filter5305" color-interpolation-filters="sRGB">
      <feGaussianBlur inkscape:collect="always" stdDeviation="15.569872" id="feGaussianBlur5307"/>
    </filter>
    <filter inkscape:collect="always" id="filter5349" color-interpolation-filters="sRGB">
      <feGaussianBlur inkscape:collect="always" stdDeviation="16.807268" id="feGaussianBlur5351"/>
    </filter>
  </defs>
  <sodipodi:namedview id="base" pagecolor="#ffffff" bordercolor="#666666" borderopacity="1.0" inkscape:pageopacity="0.0" inkscape:pageshadow="2" inkscape:zoom="0.12374369" inkscape:cx="792.63299" inkscape:cy="260.64031" inkscape:document-units="px" inkscape:current-layer="layer1" showgrid="false" inkscape:window-width="1024" inkscape:window-height="715" inkscape:window-x="-8" inkscape:window-y="-8" inkscape:window-maximized="1"/>
  <metadata id="metadata4716">
    <rdf:RDF>
      <cc:Work rdf:about="">
        <dc:format>image/svg+xml</dc:format>
        <dc:type rdf:resource="http://purl.org/dc/dcmitype/StillImage"/>
        <dc:title/>
      </cc:Work>
    </rdf:RDF>
  </metadata>
  <g inkscape:label="レイヤー 1" inkscape:groupmode="layer" id="layer1" transform="translate(0,-452.36218)">
    <path inkscape:connector-curvature="0" id="path1650" style="fill:#f57900;fill-opacity:1;fill-rule:nonzero;stroke:none" d="m 569.99987,752.36218 a 270,269.99977 0 1 1 -539.999745,0 270,269.99977 0 1 1 539.999745,0 z"/>
    <g id="g5259" transform="translate(536.78924,755.38728)">
      <path d="m -277.02124,-159.06637 c -1.8045,0 -3.31,2.46207 -3.31,5.41656 l 15.0236,203.749497 c 0,2.95449 1.504,5.41655 3.31,5.41655 0,0 11.8631,0.16791 21.6437,0 3.2211,-0.055 4.2074,0.28642 7.1294,0 9.7805,0.16791 21.6436,0 21.6436,0 1.806,0 3.3101,-2.46206 3.3101,-5.41655 l 15.0236,-203.749497 c 0,-2.95449 -1.5055,-5.00034 -3.3101,-5.00034 l -36.4133,0 c -0.134,-0.0267 -0.1156,-0.41622 -0.2539,-0.41622 l -43.7967,0 z" style="fill:#ffffff;fill-opacity:1;fill-rule:nonzero;stroke:none" id="rect1872" inkscape:connector-curvature="0"/>
      <path d="m -203.66364,120.51619 a 32.49995,32.499977 0 0 1 -64.9999,0 32.49995,32.499977 0 1 1 64.9999,0 z" style="fill:#ffffff;fill-opacity:1;fill-rule:nonzero;stroke:none" id="path2062" inkscape:connector-curvature="0"/>
    </g>
    <path style="fill:#914900;fill-opacity:1;fill-rule:nonzero;stroke:none" d="M 270.21436,1047.9568 C 165.16612,1038.3857 68.27444,966.50809 26.49624,867.15814 -33.66705,724.08782 31.27777,552.53682 171.04618,485.33107 c 98.23843,-47.23663 213.00859,-38.22621 299.29711,23.49732 52.96533,37.88691 92.58849,91.29963 114.25929,154.02369 9.9946,28.92812 11.1867,38.05691 11.3451,86.87312 0.1499,46.20787 -1.2698,59.18177 -9.2855,84.85281 -19.7422,63.22565 -56.42706,116.98213 -104.29609,152.83091 -64.37654,48.21108 -132.90272,67.76838 -212.15173,60.54788 z m 97.00014,-22.0361 c 47.46478,-9.9144 89.75934,-33.98367 130.25591,-74.12693 54.91437,-54.43539 79.62427,-108.86972 83.47287,-183.88583 C 586.86088,652.56447 528.28572,551.58935 426.41907,501.53019 343.68618,460.87371 257.28565,460.63103 175.90124,500.82653 59.67648,558.22956 -1.0985504,686.26956 26.36062,815.87663 c 11.89879,56.1622 49.21464,116.50604 95.56023,154.5315 68.03505,55.82107 152.4055,74.91507 245.29365,55.51257 l 0,0 z" id="path4749" inkscape:connector-curvature="0"/>
  </g>
</svg>